<?xml version="1.0" encoding="UTF-8" standalone="no"?>
<!-- Created with Inkscape (http://www.inkscape.org/) -->

<svg
   xmlns:dc="http://purl.org/dc/elements/1.1/"
   xmlns:cc="http://creativecommons.org/ns#"
   xmlns:rdf="http://www.w3.org/1999/02/22-rdf-syntax-ns#"
   xmlns:svg="http://www.w3.org/2000/svg"
   xmlns="http://www.w3.org/2000/svg"
   xmlns:sodipodi="http://sodipodi.sourceforge.net/DTD/sodipodi-0.dtd"
   xmlns:inkscape="http://www.inkscape.org/namespaces/inkscape"
   width="100mm"
   height="100mm"
   viewBox="0 0 100 100"
   version="1.1"
   id="svg8"
   inkscape:version="0.92.5 (2060ec1f9f, 2020-04-08)"
   sodipodi:docname="3.svg">
  <defs
     id="defs2" />
  <sodipodi:namedview
     id="base"
     pagecolor="#ffffff"
     bordercolor="#666666"
     borderopacity="1.0"
     inkscape:pageopacity="0.0"
     inkscape:pageshadow="2"
     inkscape:zoom="0.98994949"
     inkscape:cx="237.94021"
     inkscape:cy="239.87329"
     inkscape:document-units="mm"
     inkscape:current-layer="layer1"
     showgrid="false"
     showguides="false"
     inkscape:guide-bbox="true"
     inkscape:window-width="1600"
     inkscape:window-height="836"
     inkscape:window-x="0"
     inkscape:window-y="27"
     inkscape:window-maximized="1">
    <sodipodi:guide
       position="9.9999997,6.9216888"
       orientation="1,0"
       id="guide815"
       inkscape:locked="false"
       inkscape:label=""
       inkscape:color="rgb(0,0,255)" />
    <sodipodi:guide
       position="59.601104,9.9999999"
       orientation="0,1"
       id="guide817"
       inkscape:locked="false"
       inkscape:label=""
       inkscape:color="rgb(0,0,255)" />
    <sodipodi:guide
       position="63.610147,89.999999"
       orientation="0,1"
       id="guide819"
       inkscape:locked="false"
       inkscape:label=""
       inkscape:color="rgb(0,0,255)" />
    <sodipodi:guide
       position="89.999999,75.370006"
       orientation="1,0"
       id="guide821"
       inkscape:locked="false"
       inkscape:label=""
       inkscape:color="rgb(0,0,255)" />
  </sodipodi:namedview>
  <metadata
     id="metadata5">
    <rdf:RDF>
      <cc:Work
         rdf:about="">
        <dc:format>image/svg+xml</dc:format>
        <dc:type
           rdf:resource="http://purl.org/dc/dcmitype/StillImage" />
        <dc:title />
      </cc:Work>
    </rdf:RDF>
  </metadata>
  <g
     inkscape:label="Layer 1"
     inkscape:groupmode="layer"
     id="layer1"
     transform="translate(0,-197)">
    <path
       style="fill:none;stroke:#766e6e;stroke-width:1.50000004;stroke-linecap:butt;stroke-linejoin:miter;stroke-opacity:1;stroke-miterlimit:4;stroke-dasharray:3.00000008,1.50000004;stroke-dashoffset:0"
       d="m 10,207 v 80 h 79.999999 v -80 z"
       id="path823"
       inkscape:connector-curvature="0" />
    <g
       aria-label="3"
       style="font-style:normal;font-variant:normal;font-weight:normal;font-stretch:normal;font-size:31.75px;line-height:1.20000005;font-family:'Noto Sans';-inkscape-font-specification:'Noto Sans';text-align:center;letter-spacing:0px;word-spacing:0px;text-anchor:middle;fill:#000000;fill-opacity:1;stroke:none;stroke-width:0.26458332"
       id="text827-6-70">
      <path
         d="m 56.762752,240.9675 q 0,2.286 -1.27,3.65125 -1.27,1.3335 -3.429,1.778 v 0.127 q 2.7305,0.3175 4.064,1.7145 1.3335,1.397 1.3335,3.65125 0,1.9685 -0.92075,3.52425 -0.92075,1.524 -2.8575,2.38125 -1.905,0.85725 -4.92125,0.85725 -1.778,0 -3.302,-0.28575 -1.524,-0.254 -2.921,-0.9525 v -2.6035 q 1.42875,0.6985 3.07975,1.11125 1.651,0.381 3.175,0.381 3.048,0 4.3815,-1.17475 1.36525,-1.2065 1.36525,-3.302 0,-2.12725 -1.68275,-3.048 -1.651,-0.9525 -4.66725,-0.9525 h -2.19075 v -2.38125 h 2.2225 q 2.794,0 4.22275,-1.17475 1.4605,-1.17475 1.4605,-3.1115 0,-1.651 -1.11125,-2.54 -1.11125,-0.92075 -3.01625,-0.92075 -1.8415,0 -3.14325,0.53975 -1.30175,0.53975 -2.57175,1.36525 l -1.397,-1.905 q 1.2065,-0.9525 2.9845,-1.651 1.80975,-0.6985 4.09575,-0.6985 3.556,0 5.2705,1.5875 1.74625,1.5875 1.74625,4.03225 z"
         style="font-style:normal;font-variant:normal;font-weight:normal;font-stretch:normal;font-size:31.75px;font-family:'Noto Sans';-inkscape-font-specification:'Noto Sans';stroke-width:0.26458332"
         id="path847" />
    </g>
  </g>
</svg>
